<svg width="65" height="65" viewBox="0 0 65 65" fill="none" xmlns="http://www.w3.org/2000/svg">
<ellipse cx="32.5" cy="32.7009" rx="32.5" ry="31.8874" fill="#002797"/>
<path d="M38.1 23.3799H33.9C30.8245 23.3799 29.3781 24.4481 29.072 27.0294C29.0064 27.5825 29.4651 28.0404 30.0221 28.0404H32.1C36.3 28.0404 38.25 29.9537 38.25 34.0745V36.0946C38.25 36.6514 38.7075 37.1095 39.2609 37.0477C41.9059 36.7521 43 35.3334 43 32.3084V28.1876C43 24.7536 41.6 23.3799 38.1 23.3799Z" fill="white"/>
<path d="M32.1 29.2669H27.9C24.4 29.2669 23 30.6405 23 34.0746V38.1954C23 41.6294 24.4 43.003 27.9 43.003H32.1C35.6 43.003 37 41.6294 37 38.1954V34.0746C37 30.6405 35.6 29.2669 32.1 29.2669ZM33.29 34.8104L29.58 38.4505C29.44 38.5879 29.26 38.6565 29.07 38.6565C28.88 38.6565 28.7 38.5879 28.56 38.4505L26.7 36.6255C26.42 36.3508 26.42 35.9093 26.7 35.6346C26.98 35.3599 27.43 35.3599 27.71 35.6346L29.06 36.9591L32.27 33.8096C32.55 33.5349 33 33.5349 33.28 33.8096C33.56 34.0844 33.57 34.5357 33.29 34.8104Z" fill="white"/>
</svg>
