<svg width="65" height="65" viewBox="0 0 65 65" fill="none" xmlns="http://www.w3.org/2000/svg">
<ellipse cx="32.5" cy="32.7009" rx="32.5" ry="31.8874" fill="#002797"/>
<path d="M41.55 29.6986H40.45C40.3 29.6986 40.15 29.728 40.01 29.7673L35.02 24.8713C35.5 24.263 35.46 23.3898 34.89 22.8403L34.11 22.075C33.52 21.4961 32.48 21.4961 31.88 22.075L31.1 22.8403C30.54 23.3898 30.5 24.263 30.98 24.8713L25.99 29.7673C25.85 29.728 25.7 29.6986 25.55 29.6986H24.45C23.58 29.6986 22.87 30.3952 22.87 31.2488V32.3281C22.87 33.1817 23.58 33.8783 24.45 33.8783H25.55C26.42 33.8783 27.13 33.1817 27.13 32.3281V31.2488C27.13 31.1016 27.1 30.9545 27.06 30.8171L32.05 25.9211C32.32 26.1272 32.66 26.2351 33 26.2351C33.34 26.2351 33.68 26.1174 33.96 25.9113L38.95 30.8073C38.91 30.9446 38.88 31.0918 38.88 31.239V32.3183C38.88 33.1719 39.59 33.8685 40.46 33.8685H41.56C42.43 33.8685 43.14 33.1719 43.14 32.3183V31.239C43.12 30.3854 42.42 29.6986 41.55 29.6986Z" fill="white"/>
<path d="M36.75 36.6746L35.11 38.0973H30.85L29.21 36.6746C28.26 35.9093 28.26 35.3206 28.98 34.4179L31.87 30.8269C32.07 30.5816 32.3001 30.4148 32.5601 30.3265C32.83 30.2382 33.12 30.2382 33.4 30.3265C33.65 30.4148 33.88 30.5816 34.09 30.8269L36.98 34.4179C37.7 35.3108 37.67 35.87 36.75 36.6746Z" fill="white"/>
<path d="M34.29 42.0219H31.7C30.78 42.0219 30.09 41.286 30.27 40.5011L30.58 39.1373C30.64 38.8626 30.89 38.6761 31.17 38.6761H34.82C35.1 38.6761 35.34 38.8626 35.41 39.1373L35.72 40.5011C35.92 41.3351 35.27 42.0219 34.29 42.0219Z" fill="white"/>
</svg>
