<svg width="21" height="19" viewBox="0 0 21 19" fill="none" xmlns="http://www.w3.org/2000/svg">
<path d="M1.26222 10.7534C1.34814 10.7671 1.4351 10.7734 1.52211 10.7723L16.3372 10.7723L16.0141 10.9197C15.6984 11.0663 15.4111 11.2659 15.1652 11.5094L11.0107 15.5856C10.4635 16.0981 10.3716 16.9225 10.7928 17.5389C11.2831 18.1958 12.2232 18.3385 12.8928 17.8575C12.9469 17.8186 12.9983 17.7762 13.0466 17.7306L20.5593 10.3595C21.1464 9.78409 21.147 8.85068 20.5605 8.27463C20.5601 8.27426 20.5597 8.27385 20.5593 8.27348L13.0466 0.902388C12.459 0.32749 11.5077 0.328779 10.9217 0.905291C10.8756 0.950668 10.8325 0.998949 10.7928 1.04981C10.3716 1.66626 10.4635 2.49067 11.0107 3.00315L15.1577 7.08674C15.3781 7.30326 15.6316 7.48482 15.909 7.62482L16.3597 7.82384L1.6048 7.82384C0.837233 7.79588 0.163813 8.32195 0.0196152 9.06219C-0.113218 9.86587 0.443098 10.623 1.26222 10.7534Z" fill="#516BEB"/>
</svg>
