<svg width="65" height="65" viewBox="0 0 65 65" fill="none" xmlns="http://www.w3.org/2000/svg">
<ellipse cx="32.5" cy="32.7009" rx="32.5" ry="31.8874" fill="#002797"/>
<path d="M42.04 34.4474L41.12 33.5643L33.37 41.1584L34.3 42.0709C35.08 42.8362 35.89 43.2189 36.69 43.2189C37.49 43.2189 38.3 42.8362 39.08 42.0709L42.04 39.1667C43.63 37.5969 43.63 36.0172 42.04 34.4474Z" fill="white"/>
<path d="M31.69 24.2925C30.12 22.752 28.47 22.752 26.9 24.2925L23.93 27.1967C22.37 28.7371 22.37 30.356 23.93 31.8964L24.85 32.799L32.6 25.1951L31.69 24.2925Z" fill="white"/>
<path d="M42.81 25.2834C41.5 28.4917 38.51 32.6813 35.66 35.4187C35.25 32.8873 33.19 30.9054 30.59 30.5522C33.39 27.7461 37.69 24.7732 40.97 23.4781C41.55 23.2622 42.13 23.429 42.49 23.7822C42.87 24.1551 43.05 24.7143 42.81 25.2834Z" fill="white"/>
<path d="M34.78 36.2233C34.58 36.3901 34.38 36.5569 34.18 36.7138L32.39 38.1169C32.39 38.0875 32.38 38.0482 32.38 38.009C32.24 36.9591 31.74 35.9878 30.93 35.1931C30.11 34.3885 29.09 33.8979 27.97 33.7606C27.94 33.7606 27.9 33.7508 27.87 33.7508L29.32 31.9553C29.46 31.7786 29.61 31.6118 29.77 31.4352L30.45 31.5235C32.6 31.8179 34.33 33.476 34.67 35.5757L34.78 36.2233Z" fill="white"/>
<path d="M31.43 38.7056C31.43 39.7848 31.01 40.815 30.21 41.5902C29.6 42.1985 28.78 42.6106 27.78 42.7283L25.33 42.9932C23.99 43.1404 22.84 42.0121 22.99 40.6875L23.26 38.2739C23.5 36.1251 25.33 34.7515 27.27 34.7123C27.46 34.7025 27.67 34.7123 27.87 34.7319C28.72 34.8398 29.54 35.2225 30.23 35.8897C30.9 36.547 31.28 37.3221 31.39 38.1365C31.41 38.3327 31.43 38.5192 31.43 38.7056Z" fill="white"/>
</svg>
