<svg width="65" height="65" viewBox="0 0 65 65" fill="none" xmlns="http://www.w3.org/2000/svg">
<ellipse cx="32.5" cy="32.7009" rx="32.5" ry="31.8874" fill="#002797"/>
<path d="M37 23.3799H29C25.5 23.3799 24 25.3422 24 28.2857V38.0972C24 41.0407 25.5 43.003 29 43.003H37C40.5 43.003 42 41.0407 42 38.0972V28.2857C42 25.3422 40.5 23.3799 37 23.3799ZM31.53 37.5772C31.82 37.8617 31.82 38.3327 31.53 38.6172C31.38 38.7644 31.19 38.8331 31 38.8331C30.81 38.8331 30.62 38.7644 30.47 38.6172L28.47 36.6549C28.18 36.3704 28.18 35.8994 28.47 35.6149L30.47 33.6526C30.76 33.3681 31.24 33.3681 31.53 33.6526C31.82 33.9371 31.82 34.4081 31.53 34.6926L30.06 36.1349L31.53 37.5772ZM37.53 36.6549L35.53 38.6172C35.38 38.7644 35.19 38.8331 35 38.8331C34.81 38.8331 34.62 38.7644 34.47 38.6172C34.18 38.3327 34.18 37.8617 34.47 37.5772L35.94 36.1349L34.47 34.6926C34.18 34.4081 34.18 33.9371 34.47 33.6526C34.76 33.3681 35.24 33.3681 35.53 33.6526L37.53 35.6149C37.82 35.8994 37.82 36.3704 37.53 36.6549ZM39.5 30.4933H37.5C35.98 30.4933 34.75 29.2865 34.75 27.7951V25.8328C34.75 25.4306 35.09 25.097 35.5 25.097C35.91 25.097 36.25 25.4306 36.25 25.8328V27.7951C36.25 28.4721 36.81 29.0216 37.5 29.0216H39.5C39.91 29.0216 40.25 29.3552 40.25 29.7574C40.25 30.1597 39.91 30.4933 39.5 30.4933Z" fill="white"/>
</svg>
